<svg xmlns="http://www.w3.org/2000/svg" version="1.1" xmlns:xlink="http://www.w3.org/1999/xlink" xmlns:svgjs="http://svgjs.dev/svgjs" width="1500" height="1500" viewBox="0 0 1500 1500"><rect width="1500" height="1500" fill="#ffffff"></rect><g transform="matrix(0.6666666666666666,0,0,0.6666666666666666,249.39393939393938,636.8115391596358)"><svg viewBox="0 0 396 89" data-background-color="#03a9f4" preserveAspectRatio="xMidYMid meet" height="337" width="1500" xmlns="http://www.w3.org/2000/svg" xmlns:xlink="http://www.w3.org/1999/xlink"><g id="tight-bounds" transform="matrix(1,0,0,1,0.2400000000000091,0.33875229136086205)"><svg viewBox="0 0 395.52 88.32249541727828" height="88.32249541727828" width="395.52"><g><svg viewBox="0 0 395.52 88.32249541727828" height="88.32249541727828" width="395.52"><g><svg viewBox="0 0 523.5525086732631 116.91308669093556" height="88.32249541727828" width="395.52"><g transform="matrix(1,0,0,1,128.0325086732631,16.158031518067077)"><svg viewBox="0 0 395.52 84.5970236548014" height="84.5970236548014" width="395.52"><g id="textblocktransform"><svg viewBox="0 0 395.52 84.5970236548014" height="84.5970236548014" width="395.52" id="textblock"><g><svg viewBox="0 0 395.52 47.10102671312428" height="47.10102671312428" width="395.52"><g transform="matrix(1,0,0,1,0,0)"><svg width="395.52" viewBox="3.59 -37.55 315.28000000000003 37.55" height="47.10102671312428" data-palette-color="#ffffff"><path d="M38.57-23.24L38.57-20.36Q38.57-18.19 38.04-16.48 37.5-14.77 36.58-13.46 35.67-12.16 34.47-11.23 33.28-10.3 31.97-9.72 30.66-9.13 29.33-8.86 28-8.59 26.83-8.59L26.83-8.59 12.48-8.59 12.48-14.94 26.83-14.94Q28.05-15.04 29.04-15.44 30.03-15.84 30.74-16.53 31.45-17.21 31.84-18.18 32.23-19.14 32.23-20.36L32.23-20.36 32.23-23.24Q32.1-24.44 31.71-25.44 31.32-26.44 30.65-27.15 29.98-27.86 29.03-28.26 28.08-28.66 26.83-28.66L26.83-28.66 12.52-28.66Q11.25-28.66 10.6-28 9.94-27.34 9.94-26.1L9.94-26.1 9.94 0 3.59 0 3.59-26.1Q3.59-28.54 4.48-30.25 5.37-31.96 6.7-33.01 8.03-34.06 9.59-34.53 11.16-35.01 12.48-35.01L12.48-35.01 26.83-35.01Q28.98-35.01 30.69-34.46 32.4-33.91 33.7-33 35.01-32.08 35.93-30.88 36.84-29.69 37.44-28.38 38.04-27.08 38.31-25.74 38.57-24.41 38.57-23.24L38.57-23.24ZM69.72-17.65L69.72-8.74Q69.72-7.42 69.26-5.9 68.8-4.37 67.76-3.06 66.72-1.76 65.05-0.88 63.38 0 60.98 0L60.98 0 49.53 0Q48.22 0 46.69-0.46 45.16-0.93 43.86-1.97 42.55-3 41.67-4.68 40.79-6.35 40.79-8.74L40.79-8.74Q40.79-10.06 41.26-11.6 41.72-13.13 42.76-14.44 43.8-15.75 45.47-16.63 47.14-17.5 49.53-17.5L49.53-17.5 60.98-17.5 60.98-11.45 49.53-11.45Q48.24-11.45 47.53-10.66 46.82-9.86 46.82-8.69L46.82-8.69Q46.82-7.45 47.64-6.75 48.46-6.05 49.58-6.05L49.58-6.05 60.98-6.05Q62.28-6.05 62.99-6.84 63.69-7.62 63.69-8.79L63.69-8.79 63.69-17.65Q63.69-18.9 62.92-19.63 62.16-20.36 60.98-20.36L60.98-20.36 47.04-20.36 47.04-26.39 60.98-26.39Q62.3-26.39 63.83-25.93 65.35-25.46 66.66-24.43 67.97-23.39 68.85-21.72 69.72-20.04 69.72-17.65L69.72-17.65ZM98.24-26.39L98.24-20.04 83.95-20.04Q82.66-20.04 82-19.4 81.34-18.75 81.34-17.5L81.34-17.5 81.34 0 75 0 75-17.5Q75-19.14 75.41-20.43 75.83-21.73 76.52-22.72 77.22-23.71 78.12-24.4 79.02-25.1 80.01-25.54 81-25.98 82.01-26.18 83.03-26.39 83.91-26.39L83.91-26.39 98.24-26.39ZM118.47-14.4L133.42 0 124.26 0 111.47-12.35Q110.39-13.33 110.47-14.79L110.47-14.79Q110.51-15.48 110.82-16.08 111.13-16.67 111.66-17.09L111.66-17.09 123.26-26.44 133.42-26.44 118.47-14.4ZM108.85-37.55L108.85 0 102.51 0 102.51-37.55 108.85-37.55ZM143.42-37.55L143.42-31.81 137.07-31.81 137.07-37.55 143.42-37.55ZM143.42-26.39L143.42 0 137.07 0 137.07-26.39 143.42-26.39ZM178.75-14.65L178.75 0 172.4 0 172.4-14.65Q172.4-15.89 171.97-16.88 171.55-17.87 170.81-18.58 170.08-19.29 169.09-19.67 168.1-20.04 166.96-20.04L166.96-20.04 155.85-20.04 155.85 0 149.5 0 149.5-23.24Q149.5-23.9 149.74-24.48 149.99-25.05 150.43-25.48 150.87-25.9 151.45-26.15 152.04-26.39 152.7-26.39L152.7-26.39 167-26.39Q168.2-26.39 169.53-26.12 170.86-25.85 172.17-25.26 173.47-24.66 174.66-23.74 175.84-22.83 176.76-21.52 177.67-20.21 178.21-18.51 178.75-16.8 178.75-14.65L178.75-14.65ZM209.82-8.91L209.82-8.91Q209.82-7.28 209.41-5.97 208.99-4.66 208.31-3.67 207.63-2.69 206.72-1.99 205.82-1.29 204.83-0.85 203.84-0.42 202.83-0.21 201.82 0 200.91 0L200.91 0 183.73 0 183.73-6.35 200.86-6.35Q202.16-6.35 202.82-7.01 203.48-7.67 203.48-8.91L203.48-8.91Q203.35-11.45 200.91-11.45L200.91-11.45 191.07-11.45Q188.97-11.45 187.51-12.18 186.04-12.92 185.13-14.01 184.21-15.11 183.81-16.38 183.41-17.65 183.41-18.75L183.41-18.75Q183.41-20.87 184.16-22.33 184.92-23.78 186.07-24.68 187.22-25.59 188.56-25.99 189.9-26.39 191.07-26.39L191.07-26.39 206.67-26.39 206.67-20.04 191.12-20.04Q190.63-20.04 190.35-19.93 190.07-19.82 189.94-19.64 189.8-19.46 189.78-19.25 189.76-19.04 189.76-18.85L189.76-18.85Q189.78-18.46 189.9-18.24 190.02-18.02 190.21-17.92 190.39-17.82 190.62-17.81 190.85-17.8 191.07-17.8L191.07-17.8 200.91-17.8Q203.35-17.8 205.06-16.92 206.77-16.04 207.82-14.71 208.87-13.38 209.35-11.82 209.82-10.25 209.82-8.91ZM242.98-17.5L242.98-8.91Q242.98-7.28 242.56-5.97 242.15-4.66 241.46-3.67 240.78-2.69 239.88-1.99 238.97-1.29 237.98-0.85 236.99-0.42 235.98-0.21 234.97 0 234.06 0L234.06 0 222.61 0Q221.3 0 219.73-0.46 218.17-0.93 216.84-1.99 215.51-3.05 214.62-4.75 213.73-6.45 213.73-8.91L213.73-8.91 213.73-17.5Q213.73-19.95 214.62-21.64 215.51-23.34 216.84-24.4 218.17-25.46 219.73-25.93 221.3-26.39 222.61-26.39L222.61-26.39 234.06-26.39Q236.51-26.39 238.21-25.51 239.92-24.63 240.97-23.3 242.02-21.97 242.5-20.41 242.98-18.85 242.98-17.5L242.98-17.5ZM236.63-8.91L236.63-17.46Q236.63-18.77 235.97-19.41 235.31-20.04 234.06-20.04L234.06-20.04 222.66-20.04Q221.39-20.04 220.73-19.4 220.08-18.75 220.08-17.5L220.08-17.5 220.08-8.91Q220.08-7.67 220.73-7.01 221.39-6.35 222.66-6.35L222.66-6.35 234.06-6.35Q235.36-6.35 235.99-7.01 236.63-7.67 236.63-8.91L236.63-8.91ZM277.62-14.65L277.62 0 271.27 0 271.27-14.65Q271.27-15.89 270.84-16.88 270.41-17.87 269.68-18.58 268.95-19.29 267.96-19.67 266.97-20.04 265.82-20.04L265.82-20.04 254.72-20.04 254.72 0 248.37 0 248.37-23.24Q248.37-23.9 248.61-24.48 248.86-25.05 249.3-25.48 249.74-25.9 250.32-26.15 250.91-26.39 251.57-26.39L251.57-26.39 265.87-26.39Q267.07-26.39 268.4-26.12 269.73-25.85 271.04-25.26 272.34-24.66 273.53-23.74 274.71-22.83 275.63-21.52 276.54-20.21 277.08-18.51 277.62-16.8 277.62-14.65L277.62-14.65ZM288.09-33.54L287.09-21.24 283.03-21.24 282.11-33.54 288.09-33.54ZM318.87-8.91L318.87-8.91Q318.87-7.28 318.46-5.97 318.04-4.66 317.36-3.67 316.67-2.69 315.77-1.99 314.87-1.29 313.88-0.85 312.89-0.42 311.88-0.21 310.86 0 309.96 0L309.96 0 292.77 0 292.77-6.35 309.91-6.35Q311.21-6.35 311.86-7.01 312.52-7.67 312.52-8.91L312.52-8.91Q312.4-11.45 309.96-11.45L309.96-11.45 300.12-11.45Q298.02-11.45 296.56-12.18 295.09-12.92 294.18-14.01 293.26-15.11 292.86-16.38 292.46-17.65 292.46-18.75L292.46-18.75Q292.46-20.87 293.21-22.33 293.97-23.78 295.12-24.68 296.26-25.59 297.61-25.99 298.95-26.39 300.12-26.39L300.12-26.39 315.72-26.39 315.72-20.04 300.17-20.04Q299.68-20.04 299.4-19.93 299.12-19.82 298.99-19.64 298.85-19.46 298.83-19.25 298.8-19.04 298.8-18.85L298.8-18.85Q298.83-18.46 298.95-18.24 299.07-18.02 299.25-17.92 299.44-17.82 299.67-17.81 299.9-17.8 300.12-17.8L300.12-17.8 309.96-17.8Q312.4-17.8 314.11-16.92 315.82-16.04 316.87-14.71 317.92-13.38 318.4-11.82 318.87-10.25 318.87-8.91Z" opacity="1" transform="matrix(1,0,0,1,0,0)" fill="#000000" class="wordmark-text-0" data-fill-palette-color="primary" id="text-0"></path></svg></g></svg></g><g transform="matrix(1,0,0,1,163.38298796747966,58.22044869545181)"><svg viewBox="0 0 68.75402406504065 26.376574959349597" height="26.376574959349597" width="68.75402406504065"><g transform="matrix(1,0,0,1,0,0)"><svg width="68.75402406504065" viewBox="3.69 -37.55 97.87 37.55" height="26.376574959349597" data-palette-color="#ffffff"><path d="M35.84-6.35L35.84 0 6.88 0Q6.2 0 5.62-0.24 5.03-0.49 4.6-0.92 4.17-1.34 3.93-1.93 3.69-2.51 3.69-3.2L3.69-3.2 3.69-35.01 10.03-35.01 10.03-6.35 35.84-6.35ZM67.04-17.65L67.04-8.74Q67.04-7.42 66.57-5.9 66.11-4.37 65.07-3.06 64.04-1.76 62.36-0.88 60.69 0 58.3 0L58.3 0 46.85 0Q45.53 0 44-0.46 42.48-0.93 41.17-1.97 39.87-3 38.99-4.68 38.11-6.35 38.11-8.74L38.11-8.74Q38.11-10.06 38.57-11.6 39.04-13.13 40.07-14.44 41.11-15.75 42.78-16.63 44.46-17.5 46.85-17.5L46.85-17.5 58.3-17.5 58.3-11.45 46.85-11.45Q45.55-11.45 44.85-10.66 44.14-9.86 44.14-8.69L44.14-8.69Q44.14-7.45 44.96-6.75 45.77-6.05 46.9-6.05L46.9-6.05 58.3-6.05Q59.59-6.05 60.3-6.84 61.01-7.62 61.01-8.79L61.01-8.79 61.01-17.65Q61.01-18.9 60.24-19.63 59.47-20.36 58.3-20.36L58.3-20.36 44.36-20.36 44.36-26.39 58.3-26.39Q59.62-26.39 61.14-25.93 62.67-25.46 63.97-24.43 65.28-23.39 66.16-21.72 67.04-20.04 67.04-17.65L67.04-17.65ZM101.56-17.5L101.56-8.91Q101.56-8.01 101.35-7.01 101.14-6.01 100.7-5.02 100.26-4.03 99.57-3.13 98.87-2.22 97.88-1.53 96.89-0.83 95.6-0.42 94.31 0 92.67 0L92.67 0 81.22 0Q80.32 0 79.32-0.21 78.32-0.42 77.33-0.85 76.34-1.29 75.43-1.99 74.53-2.69 73.84-3.67 73.14-4.66 72.72-5.97 72.31-7.28 72.31-8.91L72.31-8.91 72.31-37.55 78.66-37.55 78.66-8.91Q78.66-7.74 79.39-7.04 80.12-6.35 81.22-6.35L81.22-6.35 92.67-6.35Q93.87-6.35 94.54-7.06 95.21-7.76 95.21-8.91L95.21-8.91 95.21-17.5Q95.21-18.7 94.5-19.37 93.79-20.04 92.67-20.04L92.67-20.04 81.22-20.04 81.22-26.39 92.67-26.39Q93.57-26.39 94.58-26.18 95.58-25.98 96.56-25.54 97.55-25.1 98.46-24.4 99.36-23.71 100.04-22.72 100.73-21.73 101.14-20.43 101.56-19.14 101.56-17.5L101.56-17.5Z" opacity="1" transform="matrix(1,0,0,1,0,0)" fill="#000000" class="slogan-text-1" data-fill-palette-color="secondary" id="text-1"></path></svg></g></svg></g></svg></g></svg></g><g><svg viewBox="0 0 116.91308669093556 116.91308669093556" height="116.91308669093556" width="116.91308669093556"><g><svg xmlns="http://www.w3.org/2000/svg" xmlns:xlink="http://www.w3.org/1999/xlink" version="1.1" x="0" y="0" viewBox="5 5 90 90" style="enable-background:new 0 0 100 100;" xml:space="preserve" height="116.91308669093556" width="116.91308669093556" class="icon-icon-0" data-fill-palette-color="accent" id="icon-0"><path d="M53.75 5C42.731 5 32.373 9.291 24.582 17.082L17.082 24.582C9.291 32.373 5 42.731 5 53.75S9.291 75.127 17.082 82.918 35.231 95 46.25 95 67.627 90.709 75.418 82.918L82.918 75.418C90.709 67.627 95 57.269 95 46.25S90.709 24.873 82.918 17.082 64.769 5 53.75 5M71.883 79.383C57.748 93.516 34.752 93.516 20.617 79.383 6.483 65.249 6.483 42.251 20.617 28.117 27.684 21.051 36.967 17.516 46.25 17.516S64.815 21.05 71.883 28.117C86.017 42.251 86.017 65.249 71.883 79.383M86.858 60.994A42 42 0 0 0 87.5 53.75C87.5 42.731 83.209 32.373 75.418 24.582S57.269 12.5 46.25 12.5C43.795 12.5 41.375 12.725 39.007 13.142A36.3 36.3 0 0 1 53.75 10.016C63.033 10.016 72.315 13.55 79.383 20.617 90.281 31.516 92.767 47.682 86.858 60.994" fill="#000000" data-fill-palette-color="accent"></path><path d="M46.25 22.5A31.07 31.07 0 0 0 28.74 27.88 2 2 0 0 0 28.494 28.055C20.349 33.701 15 43.11 15 53.75 15 70.981 29.019 85 46.25 85 56.891 85 66.302 79.65 71.948 71.503 72.009 71.424 72.069 71.346 72.12 71.262A31.1 31.1 0 0 0 77.5 53.75C77.5 36.519 63.481 22.5 46.25 22.5M46.25 80C31.775 80 20 68.225 20 53.75 20 49.514 21.015 45.512 22.805 41.966A31.5 31.5 0 0 0 22.5 46.25C22.5 63.481 36.519 77.5 53.75 77.5 55.193 77.5 56.622 77.389 58.034 77.195A26.1 26.1 0 0 1 46.25 80M68.171 68.166A26.1 26.1 0 0 1 53.75 72.5C39.275 72.5 27.5 60.725 27.5 46.25A26.1 26.1 0 0 1 31.834 31.829 26.1 26.1 0 0 1 46.25 27.5C60.725 27.5 72.5 39.275 72.5 53.75A26.1 26.1 0 0 1 68.171 68.166" fill="#000000" data-fill-palette-color="accent"></path></svg></g></svg></g></svg></g></svg></g><defs></defs></svg><rect width="395.52" height="88.32249541727828" fill="none" stroke="none" visibility="hidden"></rect></g></svg></g></svg>